<svg xmlns="http://www.w3.org/2000/svg" viewBox="0 0 1200 400" width="100%" height="100%">
    <defs>
        <style>
            @import url('https://fonts.googleapis.com/css2?family=IBM+Plex+Mono:wght@400;600&amp;display=swap');
            text { font-family: 'IBM Plex Mono', monospace; font-size: 16px; fill: #ece8de; }
            .title { font-size: 24px; font-weight: 600; fill: #5ef0c0; }
            .panel-title { font-size: 18px; fill: #9aa1ad; letter-spacing: 2px; text-transform: uppercase; }
            .label { font-size: 14px; fill: #9aa1ad; }
            .code { fill: #f2b65e; font-size: 14px; }
            .box { fill: #181c27; stroke: rgba(255,255,255,0.12); stroke-width: 2; rx: 8; }
            .box-accent { fill: rgba(94, 240, 192, 0.1); stroke: #5ef0c0; stroke-width: 2; rx: 8; }
            .arrow { stroke: #5d6470; stroke-width: 2; fill: none; }
            .arrow-head { fill: #5d6470; }
            .arrow-accent { stroke: #5ef0c0; stroke-width: 2; fill: none; }
            .arrow-head-accent { fill: #5ef0c0; }
            .node { fill: #13161f; stroke: rgba(255,255,255,0.12); stroke-width: 2; rx: 50; }
            .node-active { fill: #2f8f74; stroke: #5ef0c0; stroke-width: 2; rx: 50; }
        </style>
        <marker id="arrow" viewBox="0 0 10 10" refX="9" refY="5" markerWidth="6" markerHeight="6" orient="auto-start-reverse">
            <path d="M 0 0 L 10 5 L 0 10 z" class="arrow-head"/>
        </marker>
        <marker id="arrow-accent" viewBox="0 0 10 10" refX="9" refY="5" markerWidth="6" markerHeight="6" orient="auto-start-reverse">
            <path d="M 0 0 L 10 5 L 0 10 z" class="arrow-head-accent"/>
        </marker>
    </defs>
    <rect width="100%" height="100%" fill="#13161f" rx="12"/>
    <g transform="translate(40, 40)">
<text x="0" y="10" class="title">01. Bigram Counts</text>
    <!-- Panel -->
    <rect x="0" y="40" width="340" height="280" class="box" />
    <text x="20" y="70" class="panel-title">1. THE CONCEPT</text>
    <line x1="0" y1="90" x2="340" y2="90" stroke="rgba(255,255,255,0.12)" stroke-width="2"/>
    
    <text x="30" y="150" class="code">"hello"</text>
    <text x="30" y="190" class="label">Pairs:</text>
    <text x="30" y="220" class="code">h -> e</text>
    <text x="30" y="250" class="code">e -> l</text>
    <text x="30" y="280" class="code">l -> l</text>
    <text x="30" y="310" class="code">l -> o</text>
    
    <!-- Panel -->
    <rect x="390" y="40" width="340" height="280" class="box" />
    <text x="410" y="70" class="panel-title">2. FREQUENCY TABLE</text>
    <line x1="390" y1="90" x2="730" y2="90" stroke="rgba(255,255,255,0.12)" stroke-width="2"/>
    
    <rect x="420" y="120" width="280" height="160" class="box"/>
    <line x1="420" y1="160" x2="700" y2="160" stroke="rgba(255,255,255,0.12)"/>
    <text x="440" y="145" class="label">Char</text>
    <text x="540" y="145" class="label">Next Probabilities</text>
    <text x="450" y="185" class="code">h</text>
    <text x="540" y="185" class="code">e: 80%, a: 10%, i: 10%</text>
    <text x="450" y="225" class="code">e</text>
    <text x="540" y="225" class="code">l: 50%, r: 30%, ...</text>
    <text x="450" y="265" class="code">l</text>
    <text x="540" y="265" class="code">l: 60%, o: 20%, ...</text>
    
    <!-- Panel -->
    <rect x="780" y="40" width="340" height="280" class="box" />
    <text x="800" y="70" class="panel-title">3. GENERATION</text>
    <line x1="780" y1="90" x2="1120" y2="90" stroke="rgba(255,255,255,0.12)" stroke-width="2"/>
    
    <text x="820" y="140" class="label">Start with 'h'</text>
    <line x1="820" y1="150" x2="820" y2="180" class="arrow" marker-end="url(#arrow)"/>
    <text x="820" y="200" class="label">Sample from P(next | 'h')</text>
    <line x1="820" y1="210" x2="820" y2="240" class="arrow" marker-end="url(#arrow)"/>
    <text x="820" y="260" class="label">Got 'e' -> Sample P(next | 'e')</text>
    <text x="820" y="300" class="code" fill="#5ef0c0">Output: "hello"</text>
        </g>
</svg>