<svg xmlns="http://www.w3.org/2000/svg" viewBox="0 0 1200 400" width="100%" height="100%">
    <defs>
        <style>
            @import url('https://fonts.googleapis.com/css2?family=IBM+Plex+Mono:wght@400;600&amp;display=swap');
            text { font-family: 'IBM Plex Mono', monospace; font-size: 16px; fill: #ece8de; }
            .title { font-size: 24px; font-weight: 600; fill: #5ef0c0; }
            .panel-title { font-size: 18px; fill: #9aa1ad; letter-spacing: 2px; text-transform: uppercase; }
            .label { font-size: 14px; fill: #9aa1ad; }
            .code { fill: #f2b65e; font-size: 14px; }
            .box { fill: #181c27; stroke: rgba(255,255,255,0.12); stroke-width: 2; rx: 8; }
            .box-accent { fill: rgba(94, 240, 192, 0.1); stroke: #5ef0c0; stroke-width: 2; rx: 8; }
            .arrow { stroke: #5d6470; stroke-width: 2; fill: none; }
            .arrow-head { fill: #5d6470; }
            .arrow-accent { stroke: #5ef0c0; stroke-width: 2; fill: none; }
            .arrow-head-accent { fill: #5ef0c0; }
            .node { fill: #13161f; stroke: rgba(255,255,255,0.12); stroke-width: 2; rx: 50; }
            .node-active { fill: #2f8f74; stroke: #5ef0c0; stroke-width: 2; rx: 50; }
        </style>
        <marker id="arrow" viewBox="0 0 10 10" refX="9" refY="5" markerWidth="6" markerHeight="6" orient="auto-start-reverse">
            <path d="M 0 0 L 10 5 L 0 10 z" class="arrow-head"/>
        </marker>
        <marker id="arrow-accent" viewBox="0 0 10 10" refX="9" refY="5" markerWidth="6" markerHeight="6" orient="auto-start-reverse">
            <path d="M 0 0 L 10 5 L 0 10 z" class="arrow-head-accent"/>
        </marker>
    </defs>
    <rect width="100%" height="100%" fill="#13161f" rx="12"/>
    <g transform="translate(40, 40)">
<text x="0" y="10" class="title">02. Bigram Neural Network</text>
    <!-- Panel -->
    <rect x="0" y="40" width="340" height="280" class="box" />
    <text x="20" y="70" class="panel-title">1. ONE-HOT INPUT</text>
    <line x1="0" y1="90" x2="340" y2="90" stroke="rgba(255,255,255,0.12)" stroke-width="2"/>
    
    <text x="30" y="140" class="label">Character: 'h'</text>
    <rect x="30" y="160" width="280" height="40" class="box"/>
    <text x="40" y="185" class="code">[0, 0, 0, 1, 0, ..., 0]</text>
    <text x="30" y="240" class="label">Vocabulary Size = 27</text>
    
    <!-- Panel -->
    <rect x="390" y="40" width="340" height="280" class="box" />
    <text x="410" y="70" class="panel-title">2. LINEAR LAYER + SOFTMAX</text>
    <line x1="390" y1="90" x2="730" y2="90" stroke="rgba(255,255,255,0.12)" stroke-width="2"/>
    
    <rect x="420" y="120" width="100" height="40" class="box-accent"/>
    <text x="435" y="145" class="code">W (27x27)</text>
    <line x1="520" y1="140" x2="560" y2="140" class="arrow" marker-end="url(#arrow)"/>
    <rect x="560" y="120" width="100" height="40" class="box"/>
    <text x="575" y="145" class="code">Logits</text>
    <line x1="610" y1="160" x2="610" y2="200" class="arrow" marker-end="url(#arrow)"/>
    <rect x="560" y="200" width="100" height="40" class="box-accent"/>
    <text x="575" y="225" class="code">Softmax</text>
    <line x1="610" y1="240" x2="610" y2="280" class="arrow" marker-end="url(#arrow)"/>
    <rect x="560" y="280" width="100" height="40" class="box"/>
    <text x="575" y="305" class="code">Probs</text>
    
    <!-- Panel -->
    <rect x="780" y="40" width="340" height="280" class="box" />
    <text x="800" y="70" class="panel-title">3. CROSS-ENTROPY LOSS</text>
    <line x1="780" y1="90" x2="1120" y2="90" stroke="rgba(255,255,255,0.12)" stroke-width="2"/>
    
    <text x="800" y="140" class="label">Target: 'e'</text>
    <rect x="800" y="160" width="280" height="40" class="box"/>
    <text x="810" y="185" class="code">[0, 0, 1, 0, 0, ..., 0]</text>
    <text x="800" y="240" class="code">Loss = -log(Prob['e'])</text>
    <text x="800" y="280" class="label">Gradient pulls W to match counts</text>
        </g>
</svg>